<svg width="102" height="34" viewBox="0 0 102 34" fill="none" xmlns="http://www.w3.org/2000/svg">
<path d="M8.12 33H0.92V0.839999H10.664L18.2 16.68L21.224 24.216H21.752L24.68 16.68L31.976 0.839999H41.768V33H34.568V16.68L34.808 11.64H34.28L32.408 16.68L25.688 31.08H16.952L10.232 16.68L8.36 11.64H7.832L8.12 16.68V33ZM58.313 33.48C50.297 33.48 44.825 29.544 44.825 21C44.825 13.32 50.249 8.472 58.169 8.472C66.041 8.472 71.273 12.6 71.273 20.136C71.273 21 71.177 21.624 71.081 22.44H51.497C51.689 26.136 53.417 27.72 58.073 27.72C62.345 27.72 63.833 26.616 63.833 24.552V24.072H71.033V24.6C71.033 29.832 65.945 33.48 58.313 33.48ZM58.025 14.088C53.753 14.088 51.929 15.528 51.593 18.648H64.361C64.169 15.48 62.249 14.088 58.025 14.088ZM85.0782 33.48C77.5903 33.48 73.4623 28.584 73.4623 21C73.4623 13.32 77.5423 8.472 84.6943 8.472C90.4063 8.472 93.3343 11.304 94.1503 15.336H94.5823V0.839999H101.782V33H95.0623V26.328H94.6783C93.7663 31.08 90.5983 33.48 85.0782 33.48ZM80.7583 21C80.7583 25.368 82.9183 26.904 87.5263 26.904C92.0863 26.904 94.5823 25.32 94.5823 21.144V20.76C94.5823 16.584 92.1343 15.048 87.5263 15.048C82.9183 15.048 80.7583 16.584 80.7583 21Z" fill="#1B1B1B"/>
</svg>
