<svg width="600" height="600" viewBox="0 0 600 600" fill="none" xmlns="http://www.w3.org/2000/svg">
<g clip-path="url(#clip0_1_23)">
<path d="M390.051 410.541C390.545 353.741 391.039 296.941 391.533 240.141L378.567 239.031C375.846 231.666 368.667 209.331 377.457 184.209C387.978 154.107 416.757 133.371 447.465 130.872C488.865 127.5 515.511 158.742 520.806 164.949C544.506 192.747 555.645 238.353 535.62 270.144C528.849 280.896 519.972 287.751 513.027 291.999C518.827 341.385 524.627 390.773 530.427 440.163L494.868 451.644L390.051 410.541Z" fill="white"/>
<path d="M479.829 134.865L495.369 148.797L474.6 152.139L480.978 166.2C474.348 169.252 468.082 173.041 462.3 177.495C453.426 184.336 445.866 192.728 439.986 202.266" stroke="black" stroke-width="1.5" stroke-linecap="round" stroke-linejoin="round"/>
<path d="M435.579 140.784L423.159 151.2L429.837 153.129L415.476 167.31C415.636 173.203 416.31 179.072 417.489 184.848C419.356 193.948 422.444 202.753 426.669 211.026" stroke="black" stroke-width="1.5" stroke-linecap="round" stroke-linejoin="round"/>
<path d="M445.683 141.552C454.944 135.195 463.923 132.969 468.072 136.182C468.925 136.855 469.586 137.742 469.986 138.753C462.518 145.329 455.822 152.732 450.027 160.821C443.015 170.605 437.449 181.349 433.5 192.72C431.289 182.23 431.863 171.344 435.165 161.145C437.498 154.049 441.058 147.418 445.683 141.552Z" fill="#0EBDFF"/>
<path d="M442.35 146.256C442.55 141.444 442.756 136.631 442.968 131.817C441.778 131.795 440.593 131.64 439.437 131.355C437.934 130.982 436.495 130.39 435.165 129.597C432.765 128.073 431.532 125.808 430.608 123.639C429.63 121.35 427.281 115.047 427.272 95.973C427.272 93.417 427.311 89.715 428.985 85.365C429.664 83.6003 430.537 81.9161 431.586 80.343L464.856 84.321L482.982 102.117C485.919 107.649 484.596 113.997 480.282 117.309C475.968 120.621 470.451 119.529 469.683 119.367C469.785 125.829 469.885 132.291 469.983 138.753L462.339 145.248C460.596 145.587 458.739 145.881 456.771 146.103C451.982 146.641 447.15 146.692 442.35 146.256Z" fill="#FF9E9F"/>
<path d="M420.702 417.483C421.533 303.561 425.961 220.188 430.398 203.07C432.179 196.391 434.429 189.846 437.13 183.483C444.693 166.358 455.906 151.092 469.986 138.753" stroke="black" stroke-width="1.5" stroke-linecap="round" stroke-linejoin="round"/>
<path d="M477.714 107.076L470.799 108.6L476.052 112.986" stroke="black" stroke-width="1.5" stroke-linecap="round" stroke-linejoin="round"/>
<path d="M439.5 121.299C440.726 122.061 442.115 122.52 443.553 122.64C445.711 122.795 447.859 122.218 449.649 121.002" stroke="black" stroke-width="1.5" stroke-linecap="round" stroke-linejoin="round"/>
<path d="M468.975 101.595C469.917 100.695 471.029 99.991 472.245 99.5244C473.462 99.0578 474.759 98.8377 476.061 98.877C480.954 99.093 483.387 103.044 483.543 103.305C485.209 99.6881 485.861 95.6867 485.43 91.728C484.296 82.158 476.679 76.641 474.378 74.973C461.478 65.607 440.382 66.522 433.101 76.638C432.026 78.15 431.237 79.8459 430.773 81.642C433.59 84.717 441.399 92.385 453.843 94.584C458.641 95.4204 463.552 95.3644 468.33 94.419L466.53 101.679L468.975 101.595Z" fill="#F06D57"/>
<path d="M445.716 114.3L438.354 114.342C441.223 110.195 442.643 105.218 442.395 100.182C441.155 99.5707 439.834 99.1422 438.471 98.91C435.418 98.4324 432.291 98.9025 429.513 100.257" stroke="black" stroke-width="1.5" stroke-linecap="round" stroke-linejoin="round"/>
<path d="M448.857 99.795C450.441 98.8367 452.23 98.271 454.077 98.145C456.801 98.0017 459.492 98.7981 461.7 100.401" stroke="black" stroke-width="1.5" stroke-linecap="round" stroke-linejoin="round"/>
<path d="M470.115 277.17C464.583 280.47 459.378 281.274 457.473 279.24C455.049 276.654 458.307 269.829 460.959 266.49C471.123 253.695 497.859 260.04 502.332 261.156L508.632 278.76L513.033 291.06C509.916 292.865 506.426 293.929 502.833 294.171C500.546 294.317 498.249 294.12 496.02 293.589C489.486 300.285 482.583 302.445 480.381 300.489C478.281 298.638 479.481 292.248 483.867 285.669C476.472 292.494 468.867 294.129 466.539 291.771C464.4 289.629 465.825 283.365 470.115 277.17Z" fill="#FF9E9F"/>
<path d="M479.622 299.316C479.957 294.044 481.75 288.968 484.8 284.655C486.689 282.018 489.024 279.73 491.7 277.896" stroke="black" stroke-width="1.5" stroke-linecap="round" stroke-linejoin="round"/>
<path d="M465.513 287.373C466.521 282.188 468.95 277.385 472.527 273.498C474.742 271.127 477.353 269.16 480.243 267.684" stroke="black" stroke-width="1.5" stroke-linecap="round" stroke-linejoin="round"/>
<path d="M513.027 292.011L499.074 252.501C502.916 248.94 506.02 244.659 508.212 239.901C509.192 237.753 509.977 235.521 510.558 233.232" stroke="black" stroke-width="1.5" stroke-linecap="round" stroke-linejoin="round"/>
<path d="M404.7 268.416L354.858 260.376C353.974 260.233 353.152 259.832 352.495 259.224C351.838 258.615 351.375 257.827 351.165 256.956L331.446 175.218C331.269 174.489 331.276 173.728 331.466 173.002C331.655 172.276 332.022 171.609 332.532 171.059C333.043 170.51 333.681 170.095 334.391 169.853C335.101 169.611 335.86 169.548 336.6 169.671L386.442 177.708C387.325 177.851 388.147 178.252 388.803 178.861C389.46 179.469 389.922 180.258 390.132 181.128L409.854 262.866C410.03 263.595 410.022 264.356 409.832 265.082C409.643 265.807 409.276 266.474 408.766 267.024C408.256 267.573 407.617 267.988 406.908 268.231C406.199 268.474 405.44 268.537 404.7 268.416Z" fill="#163342"/>
<path d="M401.148 272.424L351.3 264.384C350.416 264.242 349.594 263.842 348.937 263.234C348.28 262.626 347.817 261.837 347.607 260.967L327.9 179.229C327.724 178.502 327.731 177.742 327.92 177.018C328.109 176.294 328.473 175.628 328.982 175.079C329.49 174.529 330.126 174.114 330.833 173.87C331.541 173.626 332.297 173.56 333.036 173.679L382.878 181.719C383.762 181.861 384.584 182.261 385.241 182.869C385.898 183.477 386.361 184.266 386.571 185.136L406.29 266.877C406.466 267.605 406.459 268.365 406.27 269.09C406.081 269.814 405.716 270.481 405.207 271.03C404.698 271.579 404.061 271.994 403.353 272.237C402.644 272.48 401.887 272.544 401.148 272.424Z" fill="#0EBDFF"/>
<path d="M343.407 204.378C348.108 199.977 350.325 195.198 348.9 192.804C347.136 189.843 340.005 190.854 335.682 192.621C323.541 197.58 312.543 217.083 319.968 232.884C326.529 246.843 343.404 249.27 344.868 249.459C347.469 246.96 349.461 243.896 350.688 240.504C351.461 238.347 351.909 236.088 352.017 233.799C360.264 229.377 364.251 223.344 362.985 220.686C361.785 218.163 355.32 217.53 347.778 219.927C356.385 214.713 360.078 207.864 358.443 204.969C356.964 202.341 350.547 201.972 343.407 204.378Z" fill="#FF9E9F"/>
<path d="M362.052 219.651C356.894 218.508 351.521 218.819 346.53 220.551C343.474 221.635 340.631 223.246 338.13 225.309" stroke="black" stroke-width="1.5" stroke-linecap="round" stroke-linejoin="round"/>
<path d="M354.483 202.782C349.222 202.316 343.935 203.318 339.21 205.677C336.322 207.149 333.713 209.114 331.5 211.482" stroke="black" stroke-width="1.5" stroke-linecap="round" stroke-linejoin="round"/>
<path d="M215.304 422.325L149.154 422.301C148.476 422.3 147.811 422.486 147.232 422.838C146.652 423.189 146.181 423.694 145.869 424.296C143.542 428.812 142.139 433.746 141.741 438.81C141.666 439.735 141.245 440.597 140.562 441.225C139.879 441.854 138.985 442.202 138.057 442.2H132.9C132.415 442.2 131.934 442.295 131.485 442.481C131.037 442.666 130.629 442.938 130.286 443.282C129.942 443.625 129.67 444.033 129.485 444.481C129.299 444.93 129.204 445.411 129.204 445.896V524.889C129.202 525.376 129.297 525.858 129.482 526.308C129.667 526.758 129.939 527.167 130.282 527.511C130.625 527.856 131.033 528.13 131.483 528.316C131.932 528.503 132.413 528.6 132.9 528.6H143.319C143.805 528.6 144.286 528.504 144.735 528.318C145.184 528.132 145.591 527.859 145.935 527.515C146.278 527.172 146.55 526.763 146.735 526.314C146.921 525.865 147.016 525.384 147.015 524.898C147.003 516.698 146.99 508.504 146.976 500.316C146.975 499.83 147.07 499.349 147.256 498.9C147.441 498.451 147.713 498.043 148.056 497.699C148.4 497.355 148.807 497.082 149.256 496.896C149.705 496.71 150.186 496.614 150.672 496.614H215.304" stroke="black" stroke-width="1.5" stroke-linecap="round" stroke-linejoin="round"/>
<path d="M23.601 533.925V269.295C23.601 268.809 23.6967 268.329 23.8826 267.88C24.0686 267.431 24.3411 267.024 24.6846 266.68C25.0281 266.337 25.4359 266.065 25.8847 265.879C26.3335 265.694 26.8144 265.599 27.3 265.599H186.3C187.28 265.6 188.219 265.99 188.912 266.683C189.604 267.376 189.993 268.315 189.993 269.295V427.731C189.993 428.217 190.089 428.697 190.275 429.146C190.461 429.595 190.733 430.002 191.077 430.346C191.42 430.689 191.828 430.961 192.277 431.146C192.725 431.332 193.206 431.427 193.692 431.427L557.514 431.301C558.192 431.3 558.857 431.486 559.437 431.837C560.016 432.189 560.487 432.694 560.799 433.296C563.126 437.812 564.529 442.746 564.927 447.81C565.002 448.734 565.422 449.597 566.104 450.225C566.787 450.853 567.681 451.201 568.608 451.2H573.765C574.745 451.2 575.685 451.589 576.379 452.283C577.072 452.976 577.461 453.916 577.461 454.896V533.889C577.46 534.869 577.071 535.809 576.378 536.502C575.685 537.195 574.745 537.584 573.765 537.585H563.346C562.86 537.585 562.379 537.489 561.93 537.303C561.481 537.117 561.074 536.844 560.73 536.5C560.387 536.156 560.115 535.748 559.93 535.299C559.744 534.85 559.649 534.369 559.65 533.883C559.662 525.683 559.675 517.489 559.689 509.301C559.69 508.815 559.595 508.334 559.409 507.885C559.224 507.436 558.952 507.027 558.609 506.684C558.265 506.34 557.858 506.067 557.409 505.881C556.96 505.695 556.479 505.599 555.993 505.599H46.593C46.1074 505.599 45.6266 505.695 45.1781 505.882C44.7297 506.068 44.3223 506.341 43.9794 506.685C43.6364 507.029 43.3645 507.437 43.1793 507.885C42.9941 508.334 42.8992 508.815 42.9 509.301V533.901C42.9008 534.386 42.8061 534.866 42.6212 535.315C42.4363 535.763 42.165 536.171 41.8226 536.514C41.4802 536.858 41.0736 537.13 40.6258 537.317C40.178 537.503 39.698 537.599 39.213 537.6L27.303 537.63C26.8164 537.631 26.3344 537.535 25.8847 537.349C25.435 537.164 25.0264 536.891 24.6825 536.546C24.3385 536.202 24.0659 535.793 23.8803 535.344C23.6947 534.894 23.5998 534.412 23.601 533.925Z" stroke="black" stroke-width="1.5" stroke-linecap="round" stroke-linejoin="round"/>
<path d="M498.963 431.325L432.813 431.301C432.133 431.297 431.464 431.481 430.882 431.834C430.3 432.186 429.826 432.692 429.513 433.296C427.191 437.813 425.793 442.747 425.4 447.81C425.325 448.734 424.905 449.597 424.223 450.225C423.54 450.853 422.646 451.201 421.719 451.2H416.562C415.582 451.2 414.642 451.589 413.949 452.282C413.255 452.976 412.866 453.916 412.866 454.896V533.889C412.867 534.869 413.256 535.809 413.949 536.502C414.642 537.194 415.582 537.584 416.562 537.585H426.981C427.467 537.585 427.948 537.489 428.397 537.303C428.846 537.117 429.253 536.844 429.597 536.5C429.94 536.156 430.212 535.748 430.397 535.299C430.583 534.85 430.678 534.369 430.677 533.883C430.665 525.683 430.652 517.489 430.638 509.301C430.637 508.815 430.732 508.334 430.918 507.885C431.103 507.436 431.375 507.027 431.718 506.684C432.062 506.34 432.469 506.067 432.918 505.881C433.367 505.695 433.848 505.599 434.334 505.599H498.963" stroke="black" stroke-width="1.5" stroke-linecap="round" stroke-linejoin="round"/>
<path d="M567.918 451.134L189.801 451.158L28.8 392.001" stroke="black" stroke-width="1.5" stroke-linecap="round" stroke-linejoin="round"/>
<path d="M28.8 265.599V537.582" stroke="black" stroke-width="1.5" stroke-linecap="round" stroke-linejoin="round"/>
<path d="M193.95 431.4L28.8 367.2" stroke="black" stroke-width="1.5" stroke-linecap="round" stroke-linejoin="round"/>
<path d="M55.722 251.4H178.122C188.64 251.4 197.532 257.559 198.915 265.8L215.208 362.874C216.876 372.813 207.108 381.642 194.415 381.642H72.015C61.497 381.642 52.605 375.483 51.222 367.242L34.929 270.156C33.261 260.217 43.041 251.4 55.722 251.4Z" stroke="black" stroke-width="1.5" stroke-linecap="round" stroke-linejoin="round"/>
<path d="M119.13 108.9H116.274C114.866 108.9 113.724 110.042 113.724 111.45V248.841C113.724 250.249 114.866 251.391 116.274 251.391H119.13C120.538 251.391 121.68 250.249 121.68 248.841V111.45C121.68 110.042 120.538 108.9 119.13 108.9Z" stroke="black" stroke-width="1.5" stroke-linecap="round" stroke-linejoin="round"/>
<path d="M118.44 350.328C114.507 336.252 108.84 312.705 107.238 286.695C106.467 274.095 106.401 256.785 116.274 244.749C116.64 244.302 116.949 243.948 117.006 243.885C128.658 230.784 146.922 230.502 151.932 230.586C154.77 230.207 157.655 230.391 160.422 231.126C168.93 233.415 173.22 240.303 174.321 242.133C177.963 248.187 177.906 253.965 177.849 259.731C177.762 268.578 176.949 272.973 172.449 282.732C167.877 292.692 163.248 311.289 163.725 349.314L118.44 350.328Z" fill="#F4E12C"/>
<path d="M146.568 304.065C166.668 295.665 192.168 302.706 209.796 322.497C211.785 322.71 225.543 324.396 231.996 335.697C233.609 338.553 234.621 341.709 234.972 344.97L449.7 360C453.57 349.173 463.617 341.934 474.6 341.901C483.99 341.871 492.777 347.112 497.601 355.5C498.537 353.31 502.839 343.89 512.199 341.301C512.199 341.301 519.054 339.405 527.199 343.101C541.299 349.491 547.035 385.059 543.999 430.701H186.399C172.083 422.87 159.282 412.544 148.599 400.209C136.989 386.754 111.648 357.381 121.599 329.61C127.842 312.18 144.564 304.899 146.568 304.065Z" fill="#0EBDFF"/>
<path d="M229.533 328.866C225.012 328.661 220.492 329.294 216.201 330.732C211.639 332.306 207.426 334.751 203.796 337.932C199.97 338.167 196.182 338.826 192.501 339.897C148.749 352.659 135.801 420.315 133.8 431.424L550.2 431.301C550.898 400.931 551.598 370.563 552.3 340.197C532.545 336.966 516.789 334.797 507.6 333.597C344.007 312.114 259.5 329.844 229.533 328.866Z" fill="white"/>
<path d="M213.546 323.139C215.991 323.739 228.222 327.039 233.142 337.989C234.129 340.203 234.757 342.561 235.002 344.973L306.51 349.98L449.7 360C453.57 349.173 463.617 341.934 474.6 341.901C483.99 341.871 492.777 347.112 497.601 355.5C498.736 352.845 500.299 350.395 502.227 348.246C503.727 346.578 507.264 342.645 512.799 341.166C521.58 338.82 529.245 344.301 530.259 345.048C537.555 350.448 539.427 359.214 540.519 365.238C545.001 389.964 545.193 417.294 545.001 431.301" stroke="black" stroke-width="1.5" stroke-linecap="round" stroke-linejoin="round"/>
<path d="M195.483 330.261C197.106 331.179 204.312 335.481 206.682 344.262C209.022 352.926 205.725 362.52 198.282 368.796" stroke="black" stroke-width="1.5" stroke-linecap="round" stroke-linejoin="round"/>
<path d="M149.283 382.443C145.303 388.69 141.799 395.227 138.801 402C137.937 403.948 137.137 405.861 136.401 407.739C132.52 417.579 132.52 428.526 136.401 438.366C142.731 454.377 160.935 466.077 155.397 486.399C173.697 489.618 204.696 430.701 204.696 430.701L149.283 382.443Z" fill="white"/>
<path d="M157.62 409.515L204.699 431.415" stroke="black" stroke-width="1.5" stroke-linecap="round" stroke-linejoin="round"/>
<path d="M470.7 349.8C465.709 352.12 461.432 355.738 458.319 360.277C455.205 364.816 453.368 370.108 453 375.6C453.2 388.134 453.4 400.667 453.6 413.199" stroke="black" stroke-width="1.5" stroke-linecap="round" stroke-linejoin="round"/>
<path d="M159.6 352.668L190.2 382.368C194.187 386.242 199.148 388.965 204.558 390.246C209.492 391.414 214.573 392.53 219.801 393.594C226.601 394.974 233.201 396.174 239.601 397.194C240.001 408.36 240.395 419.527 240.783 430.695H204.699C180.86 422.622 159.177 409.217 141.3 391.5C145.066 377.579 151.261 364.433 159.6 352.668Z" fill="#0EBDFF"/>
<path d="M240.018 408.798C243.872 408.512 247.739 408.446 251.601 408.6C259.839 408.93 267.801 409.248 275.4 412.701C278.922 414.297 287.457 418.872 294.099 430.8L240.783 430.701L240.018 408.798Z" fill="#FF9E9F"/>
<path d="M257.268 419.799C260.605 419.634 263.945 420.063 267.132 421.068C274.884 423.519 279.45 428.721 281.268 431.067" stroke="black" stroke-width="1.5" stroke-linecap="round" stroke-linejoin="round"/>
<path d="M145.779 316.596C144.363 308.634 143.727 302.004 141.354 294.9C139.812 295.761 135.354 298.8 130.194 298.017C124.815 297.198 120.792 294.456 119.718 287.04C118.749 280.338 121.899 274.764 126.945 272.58C128.484 271.914 132.093 271.842 133.101 271.77C139.731 271.335 151.656 245.07 152.847 238.917C156.058 238.631 159.294 239.031 162.339 240.09C164.25 240.762 169.278 242.61 172.797 247.809C174.58 250.468 175.686 253.523 176.019 256.707C176.58 261.828 177.108 266.154 177.519 269.433C178.773 279.288 179.337 282.117 178.011 285.771C176.535 289.83 173.58 292.545 171.165 294.255L177.546 313.326C177.546 315.474 176.946 316.926 176.292 317.91C172.86 323.1 158.1 321.261 145.779 316.596Z" fill="#FF9E9F"/>
<path d="M173.22 259.977C171.675 258.977 169.825 258.558 168 258.795C166.953 258.956 165.95 259.327 165.05 259.885C164.149 260.443 163.371 261.178 162.762 262.044C162.981 263.228 163.333 264.383 163.812 265.488C164.982 268.126 166.814 270.416 169.131 272.136L167.07 276.069" stroke="black" stroke-width="1.5" stroke-linecap="round" stroke-linejoin="round"/>
<path d="M171.726 281.778C171.84 283.926 167.994 290.361 158.808 284.217" stroke="black" stroke-width="1.5" stroke-linecap="round" stroke-linejoin="round"/>
<path d="M156.246 262.275C154.058 261.217 151.579 260.921 149.203 261.433C146.827 261.946 144.69 263.238 143.133 265.104" stroke="black" stroke-width="1.5" stroke-linecap="round" stroke-linejoin="round"/>
<path d="M124.986 281.946L134.799 283.947L130.422 292.134" stroke="black" stroke-width="1.5" stroke-linecap="round" stroke-linejoin="round"/>
<path d="M288.882 32.4H163.884C159.548 32.4 156.033 35.915 156.033 40.251V169.893C156.033 174.229 159.548 177.744 163.884 177.744H288.882C293.218 177.744 296.733 174.229 296.733 169.893V40.251C296.733 35.915 293.218 32.4 288.882 32.4Z" stroke="black" stroke-width="1.5" stroke-linecap="round" stroke-linejoin="round"/>
<path d="M283.449 38.013H169.317C164.981 38.013 161.466 41.528 161.466 45.864V164.28C161.466 168.616 164.981 172.131 169.317 172.131H283.449C287.785 172.131 291.3 168.616 291.3 164.28V45.864C291.3 41.528 287.785 38.013 283.449 38.013Z" stroke="black" stroke-width="1.5" stroke-linecap="round" stroke-linejoin="round"/>
<path d="M291.3 101.997H229.359V38.013H223.407V101.997H161.466V108.147H223.407V172.131H229.359V108.147H291.3V101.997Z" stroke="black" stroke-width="1.5" stroke-linecap="round" stroke-linejoin="round"/>
<path d="M95.199 152.175H125.199C124.317 162.549 123.434 172.924 122.55 183.3C122.464 183.808 122.258 184.288 121.95 184.701C121.545 185.236 120.987 185.636 120.351 185.85L94.95 186.099C94.523 186.037 94.1127 185.89 93.7433 185.667C93.3739 185.444 93.0529 185.149 92.799 184.8C92.3765 184.186 92.1823 183.443 92.25 182.7C93.234 172.524 94.217 162.349 95.199 152.175Z" fill="#0EBDFF"/>
<path d="M119.4 186.387H95.325C94.8447 186.387 94.3697 186.287 93.9305 186.093C93.4912 185.898 93.0974 185.614 92.7743 185.259C92.4511 184.904 92.2058 184.485 92.0541 184.029C91.9023 183.573 91.8474 183.091 91.893 182.613L96.24 136.713C96.3207 135.859 96.7171 135.065 97.3518 134.488C97.9865 133.91 98.8138 133.59 99.672 133.59H123.744C124.224 133.59 124.699 133.69 125.139 133.884C125.578 134.079 125.972 134.363 126.295 134.718C126.618 135.073 126.863 135.492 127.015 135.948C127.167 136.403 127.222 136.886 127.176 137.364L122.832 183.264C122.751 184.118 122.354 184.911 121.719 185.489C121.085 186.066 120.258 186.386 119.4 186.387Z" stroke="black" stroke-width="1.5" stroke-linecap="round" stroke-linejoin="round"/>
<path d="M99.069 139.8L126.939 139.878" stroke="black" stroke-width="1.5" stroke-linecap="round" stroke-linejoin="round"/>
<path d="M112.401 136.401C112.401 136.678 112.319 136.949 112.165 137.179C112.011 137.41 111.792 137.589 111.536 137.695C111.28 137.801 110.998 137.829 110.727 137.775C110.455 137.721 110.205 137.588 110.009 137.392C109.813 137.196 109.68 136.946 109.626 136.674C109.572 136.403 109.6 136.121 109.706 135.865C109.812 135.609 109.991 135.39 110.222 135.236C110.452 135.082 110.723 135 111 135C111.372 135 111.728 135.148 111.991 135.41C112.253 135.673 112.401 136.029 112.401 136.401Z" stroke="black" stroke-width="1.5" stroke-linecap="round" stroke-linejoin="round"/>
<path d="M109.068 130.599C108.195 132.099 108.192 133.851 109.068 135.066C109.549 135.71 110.228 136.178 111 136.401" stroke="black" stroke-width="1.5" stroke-linecap="round" stroke-linejoin="round"/>
<path d="M290.064 87.6H229.359" stroke="black" stroke-width="1.5" stroke-linecap="round" stroke-linejoin="round"/>
<path d="M223.407 87.6H178.779C178.779 87.6 184.119 73.578 191.601 74.775C199.083 75.972 201.093 80.343 201.093 80.343C201.093 80.343 208.524 64.599 223.407 64.899" stroke="black" stroke-width="1.5" stroke-linecap="round" stroke-linejoin="round"/>
<path d="M229.359 64.893C236.193 66.993 239.448 74.112 239.448 74.112C239.448 74.112 243.375 53.826 261.93 55.62C280.485 57.414 280.8 71.781 280.8 71.781C280.8 71.781 288.36 57.417 291.3 57.417" stroke="black" stroke-width="1.5" stroke-linecap="round" stroke-linejoin="round"/>
<path d="M104.4 331.065C105.198 339.843 112.476 367.065 122.49 373.299C108.39 369.771 90.567 352.668 90.567 352.668" stroke="black" stroke-width="1.5" stroke-linecap="round" stroke-linejoin="round"/>
</g>
<defs>
<clipPath id="clip0_1_23">
<rect width="600" height="600" fill="white"/>
</clipPath>
</defs>
</svg>
